<svg width="23" height="22" viewBox="0 0 23 22" fill="none" xmlns="http://www.w3.org/2000/svg">
<path d="M7.64288 5.06338C7.64288 5.19821 7.64288 5.33304 7.64288 5.46848C7.64288 5.80798 7.6374 6.14809 7.65019 6.48759C7.65567 6.5623 7.65993 6.63821 7.6788 6.71109C7.69949 6.79491 7.74088 6.87568 7.80236 6.93763C7.86019 6.99836 7.93628 7.03845 8.01846 7.05242C8.08176 7.0925 8.13533 7.14473 8.18828 7.19757L8.25159 7.26195V11.3135H10.3309L10.2901 6.70077C10.2481 6.61939 10.2074 6.53739 10.1678 6.4548C10.0923 6.29871 10.0168 6.14202 9.92553 5.99504C9.71857 5.66708 9.41909 5.40714 9.06482 5.24741C9.00821 5.2219 8.95221 5.19821 8.89438 5.17696C8.6789 5.098 8.45368 5.05185 8.22785 5.01541C8.15176 5.00326 8.07628 4.99172 8.00019 4.97957L7.64349 4.92188V5.0646L7.64288 5.06338ZM3.0155 5.30085L3.02463 7.32936C3.02828 8.04724 3.03193 8.7645 3.0368 9.48238C3.03985 9.92513 3.0435 10.3685 3.04593 10.8118L3.04959 11.2734L3.37585 11.2813H3.39716L3.47994 11.2843H3.49029L3.58342 11.2874C3.87864 11.2959 4.17326 11.3062 4.46848 11.308H4.47883C4.51292 11.308 4.547 11.3062 4.5817 11.305C4.66083 11.3014 4.73996 11.2892 4.81362 11.2582C4.84405 11.2455 4.87327 11.2303 4.90005 11.2115C4.99562 11.2667 5.09545 11.3147 5.20075 11.3475C5.27319 11.3712 5.34684 11.3906 5.42171 11.4052C5.64937 11.4495 5.88433 11.4508 6.1132 11.4167C6.32686 11.384 6.53504 11.3238 6.73226 11.2364C6.8327 11.1932 6.92948 11.1422 7.02139 11.0833C7.28192 10.9151 7.50471 10.6958 7.67697 10.4383C7.71045 10.3891 7.7421 10.3393 7.7701 10.2871C7.84437 10.1486 7.89489 9.99801 7.92167 9.84314C7.98498 9.50424 7.99411 9.15684 7.9655 8.8137C7.95698 8.70012 7.94237 8.58655 7.92167 8.4742C7.88515 8.27863 7.82489 8.08611 7.73054 7.90937C7.69949 7.85289 7.66601 7.79701 7.63071 7.74296C7.48158 7.51278 7.29957 7.30143 7.08287 7.13198C7.04696 7.10283 7.00922 7.0761 6.97026 7.0512C6.79983 6.9431 6.6093 6.869 6.41391 6.81798C6.10286 6.73478 5.77781 6.7202 5.46067 6.77547C5.33223 6.79855 5.20623 6.83438 5.0851 6.88358V5.17878H3.01367V5.30085H3.0155ZM17.5837 6.73721C17.4437 6.73964 17.3037 6.75482 17.1661 6.78094C16.9007 6.83135 16.6463 6.92488 16.4113 7.05849C16.1179 7.22915 15.8738 7.47269 15.7028 7.76543C15.6498 7.85532 15.6048 7.94946 15.5658 8.04663C15.4867 8.24341 15.4349 8.45051 15.4057 8.66065C15.3436 8.38735 15.2304 8.12862 15.0721 7.89783C14.9261 7.68344 14.7465 7.49395 14.5407 7.33665C14.0964 6.99958 13.5601 6.80645 13.0025 6.78276C12.9045 6.77972 12.8059 6.78154 12.7079 6.78944C12.2362 6.82892 11.7839 6.99472 11.3986 7.26924C11.1868 7.42046 11.0005 7.60449 10.8471 7.81523C10.7004 8.01505 10.5915 8.23976 10.5251 8.47845C10.4983 8.57684 10.4801 8.67765 10.4709 8.77969C10.4551 8.96735 10.4399 9.15563 10.4478 9.3439C10.4496 9.39492 10.4539 9.44654 10.4618 9.49695C10.4831 9.633 10.5269 9.76479 10.5811 9.89112C10.6128 9.96642 10.6481 10.0399 10.6846 10.1128C10.8806 10.4699 11.1521 10.7809 11.4802 11.0238C11.6737 11.1635 11.8898 11.2698 12.1193 11.3378C12.3512 11.4082 12.5923 11.4435 12.8345 11.4514C12.9283 11.4538 13.0226 11.4514 13.1164 11.4453C13.4037 11.4277 13.6867 11.3645 13.9546 11.2582C13.9941 11.2424 14.0331 11.2254 14.0714 11.206C14.2394 11.1204 14.3971 11.0153 14.5432 10.8963C14.6765 10.7882 14.8001 10.6691 14.9157 10.5422C14.9894 10.4602 15.0569 10.3721 15.1166 10.2792C15.2462 10.0776 15.3412 9.8565 15.3978 9.62389C15.424 9.85893 15.4782 10.0921 15.5755 10.3077C15.6364 10.4432 15.7149 10.5713 15.8105 10.6855C15.9396 10.838 16.0911 10.9697 16.2609 11.0754C16.4363 11.1872 16.6256 11.2758 16.8191 11.3524C16.9031 11.3852 16.9896 11.4089 17.0778 11.4253V13.3475L17.4029 13.3335L17.4358 13.3323L17.4686 13.3311H17.479L17.549 13.328C17.8515 13.3165 18.1546 13.308 18.4566 13.2886C18.6635 13.2734 18.8693 13.2266 19.0567 13.1361C19.1085 13.1106 19.1596 13.0851 19.2095 13.0566C19.4037 12.9442 19.5814 12.8057 19.7373 12.6448C19.758 12.6247 19.7768 12.6035 19.7945 12.581C19.9211 12.4316 20.0325 12.267 20.1098 12.0866C20.1445 12.0065 20.1713 11.9227 20.1908 11.8376C20.2437 11.616 20.265 11.3888 20.2766 11.1623C20.2827 11.0469 20.2863 10.9315 20.2906 10.8161C20.307 10.0818 20.3028 9.34694 20.3028 8.61206C20.3028 8.43229 20.3028 8.25191 20.3028 8.07214V6.82224H18.294V6.87507C18.0682 6.78276 17.8265 6.73721 17.5824 6.74085L17.5837 6.73721ZM13.036 8.70134C13.0598 8.70255 13.0841 8.70316 13.1066 8.71288C13.1145 8.71774 13.1206 8.72503 13.1279 8.73049C13.2083 8.80094 13.285 8.87747 13.3513 8.96128C13.3605 8.97707 13.3617 8.9959 13.3635 9.01412C13.3665 9.06088 13.3623 9.10704 13.3586 9.1532C13.3416 9.27224 13.2801 9.38095 13.1864 9.45687C13.1401 9.49392 13.0859 9.52185 13.0281 9.53521C12.9538 9.55586 12.8741 9.54918 12.8017 9.52307C12.7098 9.49027 12.6312 9.42772 12.5783 9.34573C12.5588 9.31354 12.5436 9.27953 12.5332 9.24369C12.5064 9.14591 12.5156 9.04145 12.5594 8.94974C12.5752 8.91634 12.5959 8.88476 12.6197 8.85682C12.6604 8.79791 12.7183 8.74932 12.7865 8.72563C12.8084 8.71774 12.8315 8.71409 12.8546 8.71106C12.9064 8.70438 12.9581 8.70073 13.0098 8.70195C13.0184 8.70195 13.0263 8.70195 13.0348 8.70195L13.036 8.70134ZM17.9185 8.7062C17.9568 8.7062 17.9945 8.71166 18.0305 8.7232C18.1352 8.75722 18.2252 8.83678 18.2703 8.93699C18.2849 8.96675 18.2965 8.99711 18.3044 9.0293C18.3232 9.10583 18.3232 9.18843 18.2965 9.26252C18.2861 9.29167 18.2709 9.31961 18.252 9.34512L18.2459 9.35301C18.1966 9.41435 18.1333 9.46294 18.0603 9.49392C18.0098 9.51639 17.9562 9.53279 17.902 9.5419C17.8661 9.54068 17.8302 9.53339 17.7973 9.51882C17.7596 9.50363 17.7225 9.48723 17.6859 9.46841C17.6232 9.42711 17.5758 9.36759 17.5484 9.29775C17.5118 9.20847 17.5039 9.10947 17.5264 9.01533C17.5374 8.971 17.5563 8.92909 17.5824 8.89144C17.6433 8.79487 17.7462 8.72624 17.8594 8.70923C17.8789 8.7062 17.8984 8.70498 17.9178 8.70559L17.9185 8.7062ZM5.54041 8.77301C5.58241 8.77301 5.62441 8.7809 5.66276 8.7973C5.75102 8.83374 5.82407 8.90723 5.85816 8.9959C5.87642 9.04388 5.8825 9.0955 5.87885 9.14652C5.87398 9.22122 5.84842 9.29349 5.8052 9.35484C5.75711 9.40464 5.69685 9.44229 5.63111 9.46355C5.55563 9.48906 5.47528 9.49817 5.39615 9.49088C5.33467 9.48177 5.27867 9.44897 5.24093 9.39978C5.19223 9.34147 5.16241 9.2692 5.15632 9.19328C5.14719 9.10704 5.16423 9.0208 5.20623 8.94488C5.23241 8.89872 5.27015 8.85864 5.31702 8.83252C5.38458 8.79305 5.46311 8.7724 5.54163 8.77361L5.54041 8.77301Z" fill="white"/>
<path d="M11.4526 21.0221C11.3491 20.9249 10.9899 20.1475 10.3143 18.5624L9.32817 16.2363H6.3942C4.69591 16.2363 3.32024 16.212 3.13154 16.1755C2.64457 16.0844 1.98717 15.7383 1.63412 15.386C1.27499 15.0277 0.928023 14.4021 0.83063 13.9405C0.781933 13.7219 0.763672 12.0335 0.763672 8.5656C0.763672 4.21645 0.775846 3.45728 0.854978 3.14814C1.14716 2.03003 2.07848 1.17369 3.1985 0.997558C3.74572 0.907064 19.5788 0.907064 20.1205 0.997558C21.2101 1.16761 22.111 1.94501 22.4336 2.97748C22.5493 3.3601 22.5554 3.53623 22.5554 8.54677C22.5554 11.8082 22.531 13.8124 22.4884 13.9824C22.324 14.7052 21.7032 15.5069 21.0458 15.8591C20.3701 16.2175 20.2057 16.2357 16.9796 16.2357H14.0517L13.0656 18.5618C12.5178 19.8372 12.0308 20.9243 11.976 20.979C11.7934 21.1612 11.623 21.1733 11.4526 21.0215V21.0221ZM19.0249 12.7435C19.2075 12.6402 19.4449 12.4459 19.5544 12.3001C19.9136 11.8264 19.9379 11.6503 19.9379 9.29987V7.18633H18.6596V7.56896L18.5257 7.44749C18.1909 7.14382 17.7405 7.04057 17.2231 7.14382C16.2492 7.34424 15.7378 8.03661 15.7378 9.15411C15.7378 10.0894 15.9935 10.5571 16.6874 10.8972C16.9979 11.049 17.1561 11.0915 17.43 11.0915C17.8683 11.0854 18.2335 10.9883 18.4466 10.8182L18.617 10.6846L18.5744 10.9518C18.4892 11.4802 18.2092 11.7414 17.7222 11.7414H17.4422V12.9682L18.0692 12.9439C18.617 12.9257 18.7266 12.9014 19.0249 12.7435ZM6.64377 10.879C6.99074 10.721 7.32553 10.3809 7.48379 10.0469C7.65423 9.66427 7.66031 8.75934 7.49596 8.28562C7.37422 7.92729 7.00291 7.47786 6.70465 7.31995C6.08376 6.99806 5.29245 7.05272 4.86027 7.44749L4.72026 7.56896V5.54652H3.38111L3.39328 8.23703L3.41154 10.9215L4.06895 10.9397C4.68983 10.9579 4.72026 10.9518 4.72026 10.8304C4.72026 10.6785 4.73852 10.6785 5.01853 10.8607C5.44462 11.1462 6.0655 11.1523 6.64377 10.879ZM13.7717 10.9403C14.143 10.8067 14.6483 10.3755 14.8491 10.0171C15.5126 8.86319 14.7578 7.46632 13.3213 7.18694C12.4204 7.01081 11.4465 7.4481 11.0204 8.22549C10.8865 8.48057 10.8378 8.65063 10.8195 9.01503C10.7952 9.42195 10.8134 9.51912 10.9595 9.84708C11.136 10.2419 11.5378 10.6731 11.903 10.8613C12.4326 11.1346 13.163 11.165 13.7717 10.9403ZM9.94296 8.86866L9.9247 6.79156L9.72383 6.38465C9.44382 5.81982 8.99947 5.51615 8.26902 5.39469L8.00728 5.35217V6.02632C8.00728 6.60329 8.01945 6.70046 8.10467 6.70046C8.15945 6.70046 8.29337 6.79156 8.40902 6.90696L8.61598 7.11345V10.9518H9.96122L9.94296 8.86866Z" fill="#585858"/>
<path d="M17.5818 9.83112C17.18 9.66107 17.0218 9.11446 17.2592 8.72577C17.5879 8.18524 18.3548 8.23382 18.6105 8.81079C18.7992 9.24261 18.6105 9.68536 18.154 9.85541C17.9287 9.94044 17.8192 9.93437 17.5818 9.83112ZM5.09782 9.76431C4.64738 9.45457 4.69607 8.72577 5.18304 8.49498C5.85261 8.17916 6.49176 8.84116 6.15088 9.49709C5.98044 9.83112 5.40217 9.97688 5.09782 9.76431ZM12.5301 9.80136C12.1625 9.58151 12.0425 9.10596 12.2629 8.73913C12.2702 8.72637 12.2781 8.71423 12.2866 8.70208C12.4632 8.44092 12.6519 8.34375 12.9927 8.34375C13.218 8.34375 13.291 8.37412 13.4919 8.58061C13.6928 8.78103 13.7293 8.85391 13.7293 9.07863C13.7293 9.72848 13.0658 10.1293 12.5301 9.80136Z" fill="#585858"/>
</svg>
