<svg width="23" height="23" viewBox="0 0 23 23" fill="none" xmlns="http://www.w3.org/2000/svg">
<path d="M22.8527 11.204C22.8527 12.8703 22.8575 14.5369 22.8516 16.2032C22.8413 19.2239 20.4997 21.8495 17.5012 22.2215C17.223 22.2561 16.9465 22.2713 16.6676 22.2717C13.3963 22.272 10.1254 22.2737 6.85419 22.2717C3.82281 22.2696 1.2542 20.0943 0.757901 17.1071C0.710897 16.8233 0.683594 16.5357 0.683594 16.2454C0.68705 12.8644 0.679101 9.48343 0.688087 6.10244C0.69569 3.12737 3.06833 0.485909 6.02229 0.129468C6.31987 0.0934784 6.61571 0.0785978 6.91329 0.0785978C10.1458 0.0779057 13.3787 0.104206 16.6109 0.0706385C19.5196 0.0405314 22.2295 2.09819 22.7773 5.22795C22.8337 5.54943 22.8558 5.87611 22.8547 6.20487C22.8496 7.87114 22.8523 9.53776 22.8523 11.204H22.8527ZM11.7768 2.55707C10.17 2.55707 8.56359 2.55638 6.95683 2.55776C6.76467 2.55776 6.5694 2.5498 6.3807 2.57852C4.45528 2.87198 3.16372 4.37526 3.16199 6.32668C3.15923 9.56302 3.16096 12.7997 3.16199 16.036C3.16199 16.2188 3.15612 16.4046 3.18515 16.5835C3.50035 18.5256 4.98165 19.7915 6.94094 19.7929C10.1638 19.7949 13.3866 19.7939 16.6098 19.7929C16.7923 19.7929 16.9769 19.796 17.1569 19.7717C19.1148 19.507 20.4067 17.8072 20.3867 15.9942C20.3515 12.7679 20.3794 9.54053 20.3756 6.31388C20.3732 4.16209 18.7734 2.56226 16.625 2.55776C15.0086 2.5543 13.3925 2.55707 11.7761 2.55707H11.7768Z" fill="#585858"/>
<path d="M17.9387 11.1747C17.9401 14.5703 15.1472 17.3616 11.756 17.3543C8.37662 17.347 5.6003 14.5616 5.59961 11.1785C5.59892 7.78232 8.38906 4.99344 11.7809 5.00001C15.1621 5.00624 17.9373 7.78959 17.9384 11.1751L17.9387 11.1747ZM11.7737 7.47848C9.75907 7.47571 8.08181 9.14752 8.0749 11.165C8.06798 13.1812 9.73419 14.8637 11.7498 14.8758C13.7741 14.8879 15.4627 13.2044 15.4627 11.1744C15.4627 9.1579 13.7889 7.4816 11.7733 7.47848H11.7737Z" fill="#585858"/>
<path d="M17.9281 3.78125C18.6231 3.7809 19.1619 4.32318 19.1602 5.02152C19.1585 5.69772 18.6155 6.24968 17.9426 6.25903C17.2714 6.26837 16.6908 5.69668 16.6856 5.02152C16.6804 4.3384 17.2379 3.78194 17.9281 3.7816V3.78125Z" fill="#585858"/>
</svg>
