<svg width="17" height="20" viewBox="0 0 17 20" fill="none" xmlns="http://www.w3.org/2000/svg">
<path d="M16.3962 10.1995C16.3962 15.5921 12.0647 19.9651 6.72344 19.9651C6.32193 19.9651 5.93016 19.9381 5.54082 19.8889C7.32206 19.5352 8.66529 17.9506 8.66529 16.049C8.66529 16.0466 8.66529 16.0417 8.66529 16.0392C8.65556 16.0392 8.64826 16.0392 8.63852 16.0392C6.11023 16.0392 3.86664 14.8182 2.4504 12.929C1.46731 11.6171 0.880859 9.98088 0.880859 8.20711C0.880859 4.28123 3.74254 1.02849 7.4778 0.463443C7.85741 0.406938 8.24431 0.375 8.63852 0.375C12.9213 0.375 16.3938 3.88078 16.3938 8.20711V10.1971L16.3962 10.1995Z" fill="#585858"/>
</svg>
