<svg width="24" height="22" viewBox="0 0 24 22" fill="none" xmlns="http://www.w3.org/2000/svg">
<path fill-rule="evenodd" clip-rule="evenodd" d="M23.1534 6.38213C23.4856 7.16204 23.6796 7.97838 23.7354 8.82802L23.7357 8.8277C23.8447 10.4912 23.4227 12.0139 22.5539 13.4211C21.9697 14.3672 21.2257 15.1668 20.3615 15.856C19.0386 16.911 17.547 17.6228 15.9258 18.0723C14.8685 18.3653 13.7923 18.5192 12.6986 18.5701C11.8422 18.61 10.9908 18.5601 10.1425 18.4438C10.0578 18.4322 10.0039 18.4683 9.94631 18.5085C9.66989 18.7016 9.39395 18.8954 9.11802 19.0892C8.56611 19.4768 8.01421 19.8644 7.45843 20.2461C7.4267 20.2679 7.39497 20.2897 7.36324 20.3115C6.7326 20.7447 6.10134 21.1783 5.44016 21.5644C5.37756 21.6008 5.31403 21.636 5.24864 21.6668C5.11442 21.7299 4.97148 21.7843 4.83913 21.68C4.70802 21.5763 4.7401 21.4259 4.77716 21.2902C4.97522 20.5634 5.17608 19.8372 5.37912 19.1116C5.5504 18.5007 5.72198 17.8895 5.90292 17.2814C5.93406 17.1765 5.90011 17.1485 5.81977 17.1074C4.87401 16.6236 4.00329 16.029 3.22756 15.2972C2.01149 14.1498 1.11961 12.797 0.709474 11.1558C0.226472 9.22347 0.496779 7.38159 1.44348 5.64086C2.24381 4.16993 3.40133 3.03918 4.79024 2.13834C5.93375 1.39675 7.17348 0.878489 8.48702 0.532666C9.67974 0.218567 10.8942 0.0803637 12.19 0.0703125C13.5226 0.0844469 14.8956 0.26631 16.239 0.67244C17.7148 1.11846 19.0763 1.78875 20.294 2.74361C21.5396 3.72046 22.5262 4.91058 23.1534 6.38213ZM6.35447 8.03869C6.35415 7.91619 6.38405 7.88007 6.50737 7.88384C6.70897 7.89016 6.91072 7.88899 7.11251 7.88782C7.21151 7.88724 7.31052 7.88667 7.40953 7.88698C7.59015 7.88729 7.74368 7.82196 7.86731 7.69098C8.06039 7.48682 8.11146 7.24841 8.01243 6.98394C7.91278 6.7179 7.68669 6.56368 7.384 6.56305C6.24827 6.56022 5.11224 6.5596 3.97651 6.56305C3.58662 6.56431 3.30511 6.85202 3.30573 7.23177C3.30666 7.60178 3.60095 7.88415 3.99115 7.88635C4.0181 7.88652 4.04504 7.8867 4.07198 7.88688C4.34083 7.88867 4.60944 7.89046 4.87805 7.88447C4.98144 7.88227 5.01726 7.90048 5.01601 8.01796C5.01068 8.50097 5.01139 8.98398 5.0121 9.46699C5.01234 9.63259 5.01259 9.7982 5.01259 9.9638V11.8314C5.01259 11.9627 5.0185 12.0915 5.08732 12.2102C5.24428 12.481 5.54759 12.6139 5.84126 12.5363C6.17167 12.449 6.35696 12.2121 6.35696 11.8679L6.3571 11.6763C6.358 10.4637 6.3589 9.25132 6.35447 8.03869ZM11.9446 12.4775C12.1486 12.4018 12.229 12.2501 12.2424 12.0463C12.2558 11.8393 12.2134 11.6398 12.1418 11.4495C11.6121 10.0389 11.0795 8.62919 10.5448 7.22046C10.396 6.82815 10.021 6.55991 9.64579 6.56242C9.27708 6.56494 8.90463 6.84888 8.75764 7.23868C8.63162 7.57297 8.50547 7.90719 8.37933 8.2414C8.03195 9.16173 7.6846 10.082 7.34009 11.0035C7.31981 11.0576 7.29856 11.1116 7.27723 11.1657C7.17636 11.4216 7.0738 11.6819 7.0648 11.9922C7.06616 12.0029 7.06725 12.0162 7.06848 12.0314C7.07175 12.0715 7.07606 12.1244 7.0894 12.1751C7.16009 12.4439 7.37995 12.5039 7.61133 12.5429C7.97226 12.6035 8.21578 12.4665 8.34564 12.1314C8.35752 12.1007 8.36942 12.0701 8.38133 12.0394C8.45404 11.8521 8.52681 11.6647 8.59291 11.4749C8.61938 11.3992 8.64989 11.3694 8.73429 11.37C9.34123 11.3744 9.94818 11.3738 10.5551 11.371C10.6423 11.3706 10.6909 11.3864 10.723 11.4828C10.7686 11.6196 10.8213 11.754 10.874 11.8884C10.9158 11.9953 10.9577 12.1021 10.9961 12.2102C11.0581 12.3855 11.1798 12.4829 11.3517 12.5231C11.5532 12.5705 11.7491 12.5504 11.9446 12.4775ZM15.4091 12.4599C15.6997 12.4568 15.9401 12.2608 16.0111 12.0023L16.0108 12.0026C16.0802 11.7507 15.9896 11.4963 15.7744 11.3405C15.6433 11.2453 15.4932 11.2139 15.3353 11.2139C15.2355 11.2138 15.1356 11.2132 15.0357 11.2127C14.7415 11.2112 14.4473 11.2096 14.1532 11.2174C14.0037 11.2215 13.9542 11.1929 13.9554 11.0261C13.9614 10.1731 13.9611 9.31988 13.9608 8.46676C13.9607 8.06994 13.9606 7.67314 13.9611 7.27637C13.9614 7.10895 13.9271 6.95567 13.82 6.82532C13.6241 6.58692 13.3248 6.504 13.0365 6.60545C12.7733 6.69811 12.5933 6.9541 12.5921 7.25784C12.5899 7.79381 12.5903 8.32994 12.5908 8.86611C12.591 9.08689 12.5911 9.30767 12.5911 9.52846H12.5924C12.5924 9.75395 12.5922 9.97944 12.5921 10.2049C12.5917 10.7311 12.5913 11.2572 12.593 11.7834C12.5943 12.176 12.8393 12.454 13.2158 12.4593C13.9467 12.4697 14.6782 12.4672 15.4091 12.4599ZM19.4762 12.2941C19.7281 12.6142 20.2033 12.6123 20.4736 12.3129C20.7215 12.0384 20.7066 11.6891 20.4465 11.3474C19.9897 10.7472 19.5363 10.1438 19.0885 9.53662C19.067 9.50747 19.0387 9.47904 19.0104 9.4505C18.9436 9.38341 18.8763 9.31568 18.8951 9.23635C18.9125 9.16252 18.9844 9.10144 19.0558 9.04074C19.0853 9.01571 19.1147 8.99074 19.1402 8.96496C19.2689 8.8345 19.3984 8.70466 19.5279 8.57481C19.8192 8.28263 20.1105 7.99042 20.3942 7.69098C20.6259 7.44661 20.5817 7.07001 20.3195 6.82564C20.0713 6.59446 19.7178 6.59886 19.4818 6.83695C19.3097 7.0103 19.1377 7.18368 18.9657 7.35705C18.5652 7.76075 18.1648 8.16442 17.7637 8.56763C17.7557 8.57561 17.7483 8.58434 17.7407 8.59324C17.7151 8.62321 17.688 8.65497 17.6342 8.66563V7.28736C17.6342 7.17711 17.6283 7.06938 17.5815 6.96604C17.4532 6.68209 17.1353 6.51091 16.8432 6.57153C16.5128 6.64032 16.2945 6.91107 16.2938 7.26946C16.292 8.79253 16.2923 10.3153 16.2938 11.8383C16.2942 12.2401 16.5894 12.5504 16.9646 12.5539C17.3408 12.5576 17.6317 12.2495 17.6339 11.8412C17.6343 11.7627 17.6349 11.6843 17.6355 11.6058C17.6379 11.2761 17.6404 10.9461 17.6301 10.6168C17.6248 10.4544 17.6731 10.3417 17.7893 10.2361C17.8578 10.1739 17.8864 10.1755 17.9384 10.2474C18.0458 10.396 18.1564 10.5422 18.2669 10.6884C18.3132 10.7496 18.3595 10.8108 18.4055 10.8722C18.5128 11.0152 18.6194 11.1589 18.726 11.3026C18.9729 11.6356 19.2199 11.9687 19.4762 12.2941ZM9.73827 8.4857C9.78343 8.61297 9.8248 8.72956 9.86553 8.8464C9.90803 8.96822 9.95022 9.09019 9.99241 9.21216C10.0912 9.49775 10.19 9.78337 10.2928 10.0673C10.323 10.1505 10.3208 10.176 10.2261 10.1754C9.9335 10.1731 9.64084 10.1734 9.33862 10.1738C9.2234 10.174 9.1068 10.1741 8.98828 10.1741L9.6572 8.25684C9.68583 8.33789 9.71266 8.41352 9.73827 8.4857Z" fill="#585858"/>
</svg>
