<svg width="742" height="91" viewBox="0 0 742 91" fill="none" xmlns="http://www.w3.org/2000/svg">
<g clip-path="url(#clip0_2059_537)">
<path d="M639.328 90.9982V25.9062H656.1C666.147 25.9062 668.855 31.2378 668.855 47.9196C668.855 64.6014 666.235 70.7023 656.1 70.7023H650.073V90.9933H639.328V90.9982ZM654.266 60.2133C656.886 60.2133 658.022 57.5475 658.022 47.6584C658.022 38.3741 656.709 36.5646 654.001 36.5646H650.068V60.2084H654.261L654.266 60.2133Z" fill="black"/>
<path d="M678.297 90.9982V25.9062H703.194V36.6517H689.042V52.6465H702.933V62.8791H689.042V79.7302H703.105V90.9933H678.297V90.9982Z" fill="black"/>
<path d="M721.998 90.9972V36.6556H712.648V25.9102H741.999V36.6556H732.738V90.9972H721.993H721.998Z" fill="black"/>
<path d="M620.247 45.4976C620.247 20.3684 599.553 0 574.022 0C548.491 0 527.797 20.3684 527.797 45.4976V90.9951H539.353V45.4976C539.353 26.6531 554.876 11.3744 574.022 11.3744C593.168 11.3744 608.691 26.6531 608.691 45.4976V90.9951H620.247V45.4976Z" fill="black"/>
<path d="M20.0158 89.8762V61.7184H10.8681V89.8762H0L0 24.6875H10.873V51.4713H20.0207V24.6875H30.8052V89.8762H20.0207H20.0158Z" fill="black"/>
<path d="M59.8804 89.8762L58.5877 73.5137H51.8584L50.5656 89.8762H39.9531L46.6824 24.6875H64.5452L70.8419 89.8762H59.8854H59.8804ZM55.6531 35.3652H54.8765L52.286 63.1795H58.1551L55.6531 35.3652Z" fill="black"/>
<path d="M97.8458 24.6875H108.375V70.8431C108.203 80.4902 107.687 83.3302 105.956 86.3444C103.97 89.8762 100.692 90.9938 93.4464 90.9938C86.201 90.9938 82.8339 89.8762 80.8481 86.3444C79.1228 83.3302 78.4297 80.4902 78.4297 70.8431V24.6875H89.3027V70.8431C89.3027 75.836 89.3912 77.0455 89.9909 78.2502C90.507 79.2856 91.2836 79.7162 93.6136 79.7162C95.9435 79.7162 96.6317 79.4597 97.1527 78.3373C97.7573 77.1326 97.8409 75.8408 97.8409 70.8431V24.6875H97.8458Z" fill="black"/>
<path d="M135.293 44.9257C135.381 43.9775 135.465 42.9469 135.465 40.8762C135.465 35.8833 134.949 33.8997 131.238 33.8997C128.047 33.8997 127.182 34.7609 127.182 40.9633C127.182 46.4739 127.271 46.9916 128.996 48.5398C131.67 50.8669 137.539 53.2763 140.302 55.1728C144.445 58.0128 145.478 59.7352 145.478 71.4482C145.478 87.5543 141.939 90.9942 130.982 90.9942C121.407 90.9942 117.607 88.2365 117.607 74.8059C117.607 72.0482 117.868 69.6388 118.212 68.0906H127.099C126.927 69.0389 126.927 70.2435 126.927 71.8788C126.927 79.0247 127.875 80.2342 131.154 80.2342C134.605 80.2342 135.642 79.4601 135.642 71.2789C135.642 66.5424 135.47 65.8554 133.744 64.133C130.726 61.1189 124.253 58.8788 120.974 55.8647C118.128 53.2811 117.523 51.3024 117.523 39.4151C117.523 27.5279 120.802 23.5703 131.243 23.5703C141.683 23.5703 144.701 27.1892 144.701 37.7798C144.701 41.3987 144.529 43.3775 144.096 44.9257H135.298H135.293Z" fill="black"/>
<path d="M189.649 91C182.487 91 179.208 89.7082 177.311 85.6587C175.413 81.6963 174.637 77.7339 174.637 57.2396C174.637 36.7454 175.413 32.9572 177.311 28.9077C179.208 24.9453 182.487 23.5664 189.649 23.5664C196.81 23.5664 200.001 24.9453 201.903 28.9077C203.8 32.9572 204.577 36.7454 204.577 57.2396C204.577 77.7339 203.8 81.6963 201.903 85.6587C200.005 89.7082 196.638 91 189.649 91ZM194.053 56.9832C194.053 40.7078 193.792 38.4678 193.188 36.3148C192.755 34.6795 191.806 34.0748 189.649 34.0748C187.491 34.0748 186.542 34.6795 186.109 36.2277C185.421 38.4678 185.161 40.703 185.161 56.9832C185.161 73.2635 185.421 75.3245 186.109 77.5645C186.542 79.1127 187.402 79.7175 189.649 79.7175C191.895 79.7175 192.755 79.1127 193.188 77.5645C193.876 75.2374 194.053 73.0022 194.053 56.9832Z" fill="black"/>
<path d="M214.586 89.8762V24.6875H238.834V35.4523H225.203V52.5889H238.578V63.0102H225.203V89.8762H214.591H214.586Z" fill="black"/>
<path d="M302.594 89.8762V44.8382H302.162C301.901 47.0783 301.385 49.5747 300.869 51.9019L292.67 89.881H287.838L279.467 51.8196C279.035 49.6667 278.518 47.0831 278.258 44.8431H277.825V89.881H268.25V24.6875H283.955L288.271 48.283C289.047 52.5018 289.48 55.0853 289.824 57.9253H290.34C290.684 55.0853 291.205 52.5018 291.982 48.283L296.553 24.6875H312.17V89.8762H302.594Z" fill="black"/>
<path d="M337.109 91C329.948 91 326.669 89.7082 324.772 85.6587C322.874 81.6963 322.098 77.7339 322.098 57.2396C322.098 36.7454 322.874 32.9572 324.772 28.9077C326.669 24.9453 329.948 23.5664 337.109 23.5664C344.271 23.5664 347.461 24.9453 349.364 28.9077C351.261 32.9572 352.038 36.7454 352.038 57.2396C352.038 77.7339 351.261 81.6963 349.364 85.6587C347.466 89.7082 344.099 91 337.109 91ZM341.509 56.9832C341.509 40.7078 341.248 38.4678 340.644 36.3148C340.211 34.6795 339.262 34.0748 337.105 34.0748C334.947 34.0748 333.998 34.6795 333.565 36.2277C332.877 38.4678 332.617 40.703 332.617 56.9832C332.617 73.2635 332.877 75.3245 333.565 77.5645C333.998 79.1127 334.858 79.7175 337.105 79.7175C339.351 79.7175 340.211 79.1127 340.644 77.5645C341.332 75.2374 341.509 73.0022 341.509 56.9832Z" fill="black"/>
<path d="M362.043 89.8762V24.6875H377.487C384.561 24.6875 387.839 26.0664 389.825 29.8546C391.811 33.7299 392.499 37.5182 392.499 57.2383C392.499 76.9584 391.723 81.0079 389.825 84.7962C387.928 88.6715 384.649 89.8762 377.487 89.8762H362.043ZM377.227 78.6808C379.468 78.6808 380.333 78.1631 380.85 76.6149C381.454 74.5491 381.715 72.2219 381.715 57.069C381.715 41.916 381.626 39.5018 380.85 37.4359C380.333 35.97 379.385 35.4571 377.227 35.4571H372.655V78.6856H377.227V78.6808Z" fill="black"/>
<path d="M427.018 89.8762L412.522 49.7441H412.09V89.8762H402.426V24.6875H413.471L422.358 52.5018H422.791V24.6875H432.543V89.8762H427.023H427.018Z" fill="black"/>
<path d="M443.238 89.8762V24.6875H467.83V35.4523H453.851V51.4713H467.57V61.7184H453.851V78.5986H467.742V89.881H443.238V89.8762Z" fill="black"/>
<path d="M486.546 89.8762V63.7843L475.934 25.1181V24.6875H486.807C490.862 42.9417 491.55 45.6123 491.727 47.7653H492.504C492.676 45.6123 493.369 42.9417 497.596 24.6875H508.125V25.1181L497.945 63.6972V89.8762H486.556H486.546Z" fill="black"/>
</g>
<defs>
<clipPath id="clip0_2059_537">
<rect width="742" height="91" fill="white"/>
</clipPath>
</defs>
</svg>
