<svg width="1628" height="140" viewBox="0 0 1628 140" fill="none" xmlns="http://www.w3.org/2000/svg">
<path d="M405.47 108.251L387.921 108.206L388.008 74.3075L377.326 74.2802L377.24 108.179L359.691 108.134L359.902 25.6214L377.451 25.6663L377.369 57.6032L388.051 57.6305L388.133 25.6936L405.681 25.7385L405.47 108.251ZM456.196 108.381L438.538 108.336L437.17 89.2573L428.886 89.2361L427.529 108.308L410.307 108.264L419.347 25.7735L448.123 25.8471L456.196 108.381ZM436.45 72.5784L433.691 43.0322L432.492 43.0291L429.692 72.5611L436.45 72.5784ZM486.737 83.062L486.883 25.9462L503.887 25.9897L503.741 83.1055C503.379 96.7296 502.062 100.214 499.763 103.914C496.918 108.485 492.009 109.89 481.545 109.863C470.972 109.836 466.071 108.406 463.249 103.821C460.86 100.109 459.234 96.6167 459.269 82.9917L459.415 25.8759L476.964 25.9208L476.818 83.0366C476.798 90.7756 477.559 91.4315 481.81 91.4424C486.061 91.4533 486.717 90.801 486.737 83.062ZM548.175 51.718L534.005 51.6818C534.117 50.5921 534.118 50.0471 534.123 48.0851C534.136 42.9621 533.268 41.3249 529.126 41.3143C524.984 41.3037 524.217 42.9367 524.204 48.0597C524.192 52.8557 525.387 54.1667 528.108 55.8087C534.638 59.6404 538.996 60.6326 543.24 63.4774C548.027 66.8687 550.197 70.6892 550.162 84.4232C550.112 104.043 545.192 110.026 528.515 109.983C514.89 109.948 508.688 105.463 508.721 92.4922C508.732 88.3503 508.962 83.5548 509.623 80.9405L523.902 80.977C523.682 81.8485 523.679 82.8295 523.676 84.0285C523.66 90.3504 524.527 92.4237 528.886 92.4348C533.246 92.446 534.231 91.0315 534.249 84.0555C534.26 79.8045 533.065 78.1665 530.127 76.0879C524.796 72.4773 517.933 70.8247 513.474 66.7803C509.015 62.8449 508.705 56.3041 508.733 45.4041C508.772 29.9262 512.928 24.5958 529.169 24.6373C543.884 24.6749 549.105 28.9393 549.069 42.8913C549.058 47.3603 548.834 49.6487 548.175 51.718ZM616.948 103.451C614.101 108.567 609.192 110.189 598.728 110.162C588.155 110.135 583.254 108.488 580.434 103.358C577.612 98.3364 576.426 93.3194 576.493 67.3775C576.559 41.4356 577.77 36.6426 580.617 31.5269C583.464 26.5202 588.374 24.7887 598.947 24.8158C609.41 24.8425 614.311 26.5991 617.132 31.6203C619.953 36.7505 621.14 41.5496 621.073 67.4915C621.007 93.4334 619.795 98.4443 616.948 103.451ZM603.031 89.7904C603.691 87.6121 604.025 84.6699 604.071 67.012C604.117 48.8091 603.798 45.8652 603.149 43.7926C602.608 42.3742 601.628 41.7177 598.903 41.7107C596.178 41.7037 595.087 42.3549 594.647 43.7708C593.879 45.8399 593.544 48.782 593.498 66.985C593.453 84.6429 593.772 87.5867 594.529 89.7687C594.962 91.1868 596.05 91.7346 598.775 91.7415C601.5 91.7485 602.483 91.206 603.031 89.7904ZM644.198 108.862L627.085 108.818L627.296 26.3053L663.266 26.3973L663.222 43.8372L644.365 43.789L644.323 60.2479L662.853 60.2953L662.81 77.0813L644.28 77.0339L644.198 108.862ZM755.387 109.146L739.691 109.106L739.817 59.6201L739.163 59.6185L726.502 109.072L718.981 109.053L706.463 59.5348L705.809 59.5332L705.683 109.019L690.096 108.979L690.307 26.4664L714.505 26.5283L722.043 62.4087L722.806 62.4106L731.4 26.5715L755.489 26.6331L755.387 109.146ZM801.843 103.924C798.996 109.04 794.087 110.662 783.623 110.635C773.05 110.608 768.149 108.961 765.329 103.831C762.507 98.8093 761.321 93.7922 761.388 67.8503C761.454 41.9084 762.665 37.1155 765.512 31.9998C768.359 26.993 773.268 25.2616 783.841 25.2886C794.305 25.3154 799.206 27.0719 802.027 32.0931C804.848 37.2234 806.035 42.0224 805.968 67.9643C805.902 93.9062 804.69 98.9172 801.843 103.924ZM787.926 90.2633C788.586 88.0849 788.92 85.1428 788.966 67.4848C789.012 49.2819 788.693 46.3381 788.044 44.2654C787.503 42.847 786.523 42.1905 783.798 42.1836C781.073 42.1766 779.982 42.8278 779.542 44.2437C778.774 46.3127 778.439 49.2549 778.393 67.4578C778.347 85.1158 778.667 88.0596 779.424 90.2415C779.857 91.6596 780.945 92.2074 783.67 92.2144C786.395 92.2214 787.378 91.6789 787.926 90.2633ZM834.979 109.35L811.98 109.291L812.191 26.7781L835.19 26.8369C845.654 26.8637 850.664 28.6205 853.485 33.4237C856.307 38.336 857.385 43.1347 857.321 68.0957C857.257 93.1656 856.154 98.0678 853.308 102.857C850.461 107.754 845.443 109.376 834.979 109.35ZM829.14 91.1317L834.59 91.1456C837.315 91.1526 838.297 90.6101 838.846 89.1945C839.505 87.2342 839.838 84.619 839.882 67.7241C839.925 50.7201 839.605 47.8853 838.956 45.9216C838.415 44.7212 837.435 44.1737 834.71 44.1668L829.26 44.1528L829.14 91.1317ZM899.693 109.515L863.287 109.422L863.498 26.9093L900.013 27.0027L899.968 44.4427L880.566 44.393L880.529 58.89L899.604 58.9388L899.561 75.6157L880.486 75.5669L880.447 91.1539L899.739 91.2032L899.693 109.515ZM951.297 109.647L942.359 109.624L922.961 65.3205L922.307 65.3188L922.194 109.573L906.607 109.533L906.818 27.0201L923.604 27.063L935.085 55.7595L935.739 55.7612L935.812 27.0943L951.508 27.1344L951.297 109.647ZM988.641 109.743L970.221 109.696L970.297 79.6116L955.388 27.6893L955.39 27.1443L973.048 27.1895C977.682 47.8024 978.22 50.4198 978.865 53.9094L979.955 53.9122C980.618 50.4259 981.17 47.8113 986.127 27.2229L1003.24 27.2667L1003.24 27.8117L988.719 79.4407L988.641 109.743ZM1153.96 110.165L1136.85 110.122L1137.06 27.6089L1161.8 27.6722C1176.52 27.7098 1180.42 34.9138 1180.37 56.0598C1180.32 77.6417 1176.37 85.3706 1161.66 85.333L1154.03 85.3135L1153.96 110.165ZM1154.07 68.3096L1158.65 68.3213C1161.81 68.3294 1163.02 65.4984 1163.04 55.5795C1163.06 46.8595 1161.65 44.8939 1158.27 44.8852L1154.13 44.8746L1154.07 68.3096ZM1222.33 110.34L1185.92 110.247L1186.13 27.7344L1222.65 27.8278L1222.6 45.2677L1203.2 45.2181L1203.16 59.7151L1222.24 59.7639L1222.2 76.4408L1203.12 76.392L1203.08 91.979L1222.37 92.0283L1222.33 110.34ZM1257.15 110.429L1240.03 110.386L1240.2 45.3127L1227.23 45.2796L1227.27 27.8396L1270.33 27.9497L1270.28 45.3897L1257.31 45.3565L1257.15 110.429Z" fill="white"/>
<g clip-path="url(#clip0_2058_168)">
<path d="M1071.49 0.113057C1060.46 0.0848558 1049.38 4.01776 1041.06 10.9042C1032.14 18.3046 1027.21 28.2524 1027.18 38.9085L1027 110.628L1041.64 110.666L1041.83 38.7986C1041.86 25.7036 1055.99 13.8151 1071.46 13.8546C1086.94 13.8942 1100.71 26.0587 1100.67 40.9706L1100.49 110.816L1115.14 110.853L1115.32 40.427C1115.37 18.6402 1095.3 0.17395 1071.49 0.113057Z" fill="white"/>
</g>
<defs>
<clipPath id="clip0_2058_168">
<rect width="88.138" height="110.628" fill="white" transform="translate(1027.28) rotate(0.146526)"/>
</clipPath>
</defs>
</svg>
